<?xml version="1.0" encoding="UTF-8" standalone="no"?>
<!-- Created with Inkscape (http://www.inkscape.org/) -->

<svg
   xmlns:dc="http://purl.org/dc/elements/1.1/"
   xmlns:cc="http://creativecommons.org/ns#"
   xmlns:rdf="http://www.w3.org/1999/02/22-rdf-syntax-ns#"
   xmlns:svg="http://www.w3.org/2000/svg"
   xmlns="http://www.w3.org/2000/svg"
   xmlns:xlink="http://www.w3.org/1999/xlink"
   xmlns:sodipodi="http://sodipodi.sourceforge.net/DTD/sodipodi-0.dtd"
   xmlns:inkscape="http://www.inkscape.org/namespaces/inkscape"
   width="109.4664mm"
   height="109.4664mm"
   viewBox="0 0 387.87307 387.87307"
   id="svg2"
   version="1.1"
   inkscape:version="0.91 r13725"
   sodipodi:docname="icon.svg"
   inkscape:export-filename="/Users/hosoda-sho/private/slack-reply-and-quote-button/img/icon128.png"
   inkscape:export-xdpi="29.700001"
   inkscape:export-ydpi="29.700001">
  <defs
     id="defs4" />
  <sodipodi:namedview
     id="base"
     pagecolor="#ffffff"
     bordercolor="#666666"
     borderopacity="1.0"
     inkscape:pageopacity="0.0"
     inkscape:pageshadow="2"
     inkscape:zoom="0.98994949"
     inkscape:cx="269.67475"
     inkscape:cy="169.30159"
     inkscape:document-units="px"
     inkscape:current-layer="layer1"
     showgrid="false"
     inkscape:window-width="1633"
     inkscape:window-height="1005"
     inkscape:window-x="47"
     inkscape:window-y="1"
     inkscape:window-maximized="1"
     fit-margin-top="0"
     fit-margin-left="0"
     fit-margin-right="0"
     fit-margin-bottom="0" />
  <metadata
     id="metadata7">
    <rdf:RDF>
      <cc:Work
         rdf:about="">
        <dc:format>image/svg+xml</dc:format>
        <dc:type
           rdf:resource="http://purl.org/dc/dcmitype/StillImage" />
        <dc:title></dc:title>
      </cc:Work>
    </rdf:RDF>
  </metadata>
  <g
     inkscape:label="Layer 1"
     inkscape:groupmode="layer"
     id="layer1"
     transform="translate(848.73334,-413.97003)">
    <image
       sodipodi:absref="/Users/hosoda-sho/private/slack-reply-and-quote-button/img/Slack_Mark_Web.png"
       xlink:href="Slack_Mark_Web.png"
       width="684.85797"
       height="684.85797"
       preserveAspectRatio="none"
       id="image3396"
       x="-1015.3883"
       y="251.35577" />
    <rect
       style="fill:#ffffff;fill-opacity:1;stroke:none"
       id="rect4201"
       width="117.1777"
       height="135.36044"
       x="-611.34747"
       y="641.22882" />
    <path
       style="color:#000000;font-style:normal;font-variant:normal;font-weight:normal;font-stretch:normal;font-size:medium;line-height:normal;font-family:sans-serif;text-indent:0;text-align:start;text-decoration:none;text-decoration-line:none;text-decoration-style:solid;text-decoration-color:#000000;letter-spacing:normal;word-spacing:normal;text-transform:none;direction:ltr;block-progression:tb;writing-mode:lr-tb;baseline-shift:baseline;text-anchor:start;white-space:normal;clip-rule:nonzero;display:inline;overflow:visible;visibility:visible;opacity:1;isolation:auto;mix-blend-mode:normal;color-interpolation:sRGB;color-interpolation-filters:linearRGB;solid-color:#000000;solid-opacity:1;fill:#000000;fill-opacity:1;fill-rule:evenodd;stroke:none;stroke-width:1px;stroke-linecap:butt;stroke-linejoin:miter;stroke-miterlimit:4;stroke-dasharray:none;stroke-dashoffset:0;stroke-opacity:1;color-rendering:auto;image-rendering:auto;shape-rendering:auto;text-rendering:auto;enable-background:accumulate"
       d="m -565.57169,755.505 q -3.48496,0 -6.07058,-2.69804 l -31.02744,-30.91502 q -2.58563,-2.58562 -2.58563,-6.18299 0,-3.5974 2.58563,-6.18302 l 31.02744,-30.91501 q 2.58562,-2.58562 6.18301,-2.58562 3.59738,-0.11248 6.07058,2.58562 2.58562,2.69803 2.4732,6.07058 0,3.37254 -2.58562,6.183 l -16.30066,16.30065 27.5425,0 q 9.78039,0 16.97514,-7.86928 7.19477,-7.86928 7.19477,-18.09933 0,-3.70982 2.58562,-6.18302 2.58562,-2.4732 6.18301,-2.4732 3.59738,0 6.07058,2.58562 2.47321,2.58562 2.47321,6.0706 0,17.31239 -12.25359,30.24051 -12.2536,12.9281 -29.22874,12.9281 l -27.5425,0 16.5255,16.63789 q 2.4732,2.13595 2.36078,5.73335 0,3.59737 -2.58562,6.18299 -2.58562,2.58562 -6.07059,2.58562 z m -67.90063,3.37256 q 0,14.27711 10.11764,24.39475 10.11766,10.11766 24.39477,10.23006 l 92.18298,0 q 14.27712,0 24.39477,-10.11764 10.11764,-10.11764 10.11764,-24.50717 l 0,-92.07057 q 0,-14.27712 -10.11764,-24.39477 -10.11765,-10.11764 -24.39477,-10.11764 l -92.18298,0 q -14.27711,0 -24.39477,10.11764 -10.11764,10.11765 -10.11764,24.39477 l 0,92.07057 z"
       id="rect3336"
       inkscape:connector-curvature="0"
       sodipodi:nodetypes="ccccccccccc" />
  </g>
</svg>
